HIERARCHY
ROOT Hips
{
	OFFSET -0.001795 -0.223333 0.028219
	CHANNELS 6 Xposition Yposition Zposition Zrotation Yrotation Xrotation 
	JOINT LeftUpLeg
	{
		OFFSET 0.069520 -0.091406 -0.006815
		CHANNELS 3 Zrotation Yrotation Xrotation
		JOINT LeftLeg
		{
			OFFSET 0.034277 -0.375199 -0.004496
			CHANNELS 3 Zrotation Yrotation Xrotation
			JOINT LeftFoot
			{
				OFFSET -0.013596 -0.397961 -0.043693
				CHANNELS 3 Zrotation Yrotation Xrotation
				JOINT LeftToe
				{
					OFFSET 0.026358 -0.055791 0.119288
					CHANNELS 3 Zrotation Yrotation Xrotation
					End Site
					{
						OFFSET 0.000000 0.000000 0.000000
					}
				}
			}
		}
	}
	JOINT RightUpLeg
	{
		OFFSET -0.067670 -0.090522 -0.004320
		CHANNELS 3 Zrotation Yrotation Xrotation
		JOINT RightLeg
		{
			OFFSET -0.038290 -0.382569 -0.008850
			CHANNELS 3 Zrotation Yrotation Xrotation
			JOINT RightFoot
			{
				OFFSET 0.015774 -0.398415 -0.042312
				CHANNELS 3 Zrotation Yrotation Xrotation
				JOINT RightToe
				{
					OFFSET -0.025372 -0.048144 0.123348
					CHANNELS 3 Zrotation Yrotation Xrotation
					End Site
					{
						OFFSET 0.000000 0.000000 0.000000
					}
				}
			}
		}
	}
	JOINT Spine
	{
		OFFSET -0.002533 0.108963 -0.026696
		CHANNELS 3 Zrotation Yrotation Xrotation
		JOINT Spine1
		{
			OFFSET 0.005487 0.135180 0.001092
			CHANNELS 3 Zrotation Yrotation Xrotation
			JOINT Spine2
			{
				OFFSET 0.001457 0.052922 0.025425
				CHANNELS 3 Zrotation Yrotation Xrotation
				JOINT Neck
				{
					OFFSET -0.002778 0.213870 -0.042857
					CHANNELS 3 Zrotation Yrotation Xrotation
					JOINT Head
					{
						OFFSET 0.005152 0.064970 0.051349
						CHANNELS 3 Zrotation Yrotation Xrotation
						End Site
						{
							OFFSET 0.000000 0.000000 0.000000
						}
					}
				}
				JOINT LeftShoulder
				{
					OFFSET 0.078845 0.121749 -0.034090
					CHANNELS 3 Zrotation Yrotation Xrotation
					JOINT LeftArm
					{
						OFFSET 0.090977 0.030469 -0.008868
						CHANNELS 3 Zrotation Yrotation Xrotation
						JOINT LeftForeArm
						{
							OFFSET 0.259612 -0.012772 -0.027456
							CHANNELS 3 Zrotation Yrotation Xrotation
							JOINT LeftHand
							{
								OFFSET 0.249234 0.008986 -0.001171
								CHANNELS 3 Zrotation Yrotation Xrotation
								End Site
								{
									OFFSET 0.000000 0.000000 0.000000
								}
							}
						}
					}
				}
				JOINT RightShoulder
				{
					OFFSET -0.081759 0.118833 -0.038615
					CHANNELS 3 Zrotation Yrotation Xrotation
					JOINT RightArm
					{
						OFFSET -0.096012 0.032551 -0.009143
						CHANNELS 3 Zrotation Yrotation Xrotation
						JOINT RightForeArm
						{
							OFFSET -0.253742 -0.013329 -0.021401
							CHANNELS 3 Zrotation Yrotation Xrotation
							JOINT RightHand
							{
								OFFSET -0.255298 0.007772 -0.005559
								CHANNELS 3 Zrotation Yrotation Xrotation
								End Site
								{
									OFFSET 0.000000 0.000000 0.000000
								}
							}
						}
					}
				}
			}
		}
	}
}
MOTION
Frames: 9
Frame Time: 0.050000
0.000000 0.925635 0.000000 -1.319090 10.436260 -4.676740 12.931144 -0.570605 3.869237 -4.731566 0.339871 10.279067 6.016124 12.813835 2.917176 0.000000 0.000000 0.000000 -4.108806 0.408786 -7.602806 4.445031 -1.003871 17.096392 -3.525622 -9.025616 0.185497 0.000000 0.000000 0.000000 3.208584 -0.481435 6.822447 0.669154 -0.821786 6.272988 -7.019339 1.305852 9.468629 5.569422 -2.111231 -12.529908 0.000000 0.000000 0.000000 -34.413686 -21.878901 8.534723 -33.816453 -10.473551 -0.478148 6.339049 -32.264959 -0.909211 0.000000 0.000000 0.000000 29.057311 13.169066 9.387243 44.756541 18.757056 0.888082 -3.559644 30.591577 0.571202 0.000000 0.000000 0.000000 
0.000568 0.925331 0.001424 -1.173036 10.125822 -4.239224 13.411450 -0.592432 3.470104 -5.781253 0.528501 10.014593 6.613289 14.211386 4.264896 0.000000 0.000000 0.000000 -3.961894 0.525213 -9.389989 4.077001 -0.997421 19.922161 -3.498468 -8.875032 -0.181915 0.000000 0.000000 0.000000 3.465869 -0.383470 5.403142 0.645713 -0.831464 6.601239 -8.369142 2.162098 11.015662 5.282070 -1.906099 -12.149682 0.000000 0.000000 0.000000 -33.461974 -21.243226 7.653427 -34.592772 -10.261986 -0.550536 6.909275 -34.068566 -1.206334 0.000000 0.000000 0.000000 29.658205 13.733907 10.368280 44.111751 19.916529 0.950697 -3.640098 28.615107 0.533789 0.000000 0.000000 0.000000 
0.000714 0.925657 0.002515 -1.356824 10.639323 -4.148032 13.454703 -0.606027 3.054097 -5.354210 0.437932 10.419005 5.966856 13.275248 4.940740 0.000000 0.000000 0.000000 -3.786183 0.561676 -9.891393 4.506008 -1.225005 20.946199 -3.187068 -8.176261 0.384832 0.000000 0.000000 0.000000 3.931025 -0.425091 5.602135 1.115989 -1.077707 6.250915 -9.160375 2.528890 12.063103 5.536799 -2.320840 -10.570721 0.000000 0.000000 0.000000 -33.532899 -21.357880 7.443967 -33.593005 -11.212752 -0.273725 5.599904 -33.057853 -0.788668 0.000000 0.000000 0.000000 29.268579 14.265607 10.950126 43.475094 19.428322 0.608788 -2.637161 29.294717 0.778790 0.000000 0.000000 0.000000 
0.000369 0.926554 0.003293 -1.191446 11.196398 -4.726976 13.617746 -0.629071 3.130753 -5.655497 0.456070 11.866387 5.903251 12.868414 3.835859 0.000000 0.000000 0.000000 -3.891948 0.503680 -9.262113 4.813772 -1.426978 21.939028 -3.015689 -7.667604 -0.144153 0.000000 0.000000 0.000000 3.681078 -0.399500 5.516470 1.464660 -1.400859 7.343613 -9.595881 2.669995 12.129223 5.468039 -2.569830 -8.828298 0.000000 0.000000 0.000000 -34.081993 -22.335063 7.949497 -32.730356 -10.793694 -0.288806 5.159951 -33.588462 -0.675460 0.000000 0.000000 0.000000 28.920544 14.641282 11.277721 43.811656 19.865927 0.786036 -3.926350 28.644366 0.458582 0.000000 0.000000 0.000000 
-0.000610 0.926332 0.003629 -1.145576 12.134465 -4.906264 13.640853 -0.644850 2.616282 -5.861993 0.455878 12.415663 5.418189 12.060425 3.964368 0.000000 0.000000 0.000000 -3.938120 0.471046 -9.037721 4.913043 -1.577453 22.535657 -3.525141 -9.001701 0.118516 0.000000 0.000000 0.000000 3.160857 -0.447938 6.418230 2.349219 -1.984892 7.689036 -10.003699 2.681839 11.874214 5.832067 -3.099852 -7.431486 0.000000 0.000000 0.000000 -35.275799 -23.037062 8.275410 -31.192656 -10.570158 -0.222779 4.368783 -33.587569 -0.419716 0.000000 0.000000 0.000000 29.381238 14.819373 11.655792 43.513350 19.470791 0.583992 -5.330974 28.116396 0.122183 0.000000 0.000000 0.000000 
-0.002167 0.925950 0.003461 -1.193498 12.630742 -5.104294 13.979005 -0.673497 2.285953 -5.815252 0.410980 13.432385 5.499802 12.211806 3.993036 0.000000 0.000000 0.000000 -3.669383 0.472566 -8.717768 4.964030 -1.641459 22.560905 -3.512835 -8.947845 -0.165323 0.000000 0.000000 0.000000 2.748817 -0.461263 6.856016 2.823257 -2.267861 7.609416 -9.928608 2.686096 12.244054 5.809133 -3.225729 -6.728631 0.000000 0.000000 0.000000 -35.352213 -23.818474 8.778756 -30.688861 -10.551243 -0.217988 3.233366 -33.317426 -0.066288 0.000000 0.000000 0.000000 29.567735 15.255174 12.093180 43.081791 19.190956 0.386440 -5.191474 27.989552 0.144485 0.000000 0.000000 0.000000 
-0.003968 0.925747 0.002586 -1.257960 13.067732 -5.224479 13.920942 -0.649046 1.514160 -6.029933 0.419799 14.124437 5.848771 12.843255 4.078497 0.000000 0.000000 0.000000 -3.615049 0.461501 -8.545160 5.036792 -1.717574 22.707283 -3.773437 -9.644378 0.128027 0.000000 0.000000 0.000000 2.516652 -0.491449 7.387607 3.325415 -2.646601 8.095144 -10.056686 2.487355 12.239304 6.179131 -3.550540 -6.598135 0.000000 0.000000 0.000000 -35.272208 -24.474881 9.295989 -30.334727 -11.076949 -0.104195 3.234190 -32.448310 -0.048630 0.000000 0.000000 0.000000 29.564791 16.034029 12.585923 42.685763 18.970107 0.313025 -6.356527 27.728756 -0.139212 0.000000 0.000000 0.000000 
-0.005788 0.925405 0.001297 -1.428450 13.337423 -5.313395 13.767913 -0.620198 0.865434 -5.902239 0.360722 14.960335 6.235435 13.395880 3.683485 0.000000 0.000000 0.000000 -3.409787 0.477950 -8.548196 5.105630 -1.779548 22.836661 -3.732541 -9.512245 -0.240152 0.000000 0.000000 0.000000 2.454816 -0.563014 8.294452 3.792335 -2.887462 7.773090 -10.177211 2.498962 13.047929 6.726643 -3.973598 -6.677302 0.000000 0.000000 0.000000 -35.194630 -25.724709 10.235968 -29.522586 -11.741796 -0.000404 3.433749 -32.073631 -0.086719 0.000000 0.000000 0.000000 28.862731 16.356878 12.688833 43.273693 19.250308 0.429815 -7.217615 28.135451 -0.315812 0.000000 0.000000 0.000000 
-0.007398 0.925170 -0.000370 -1.680643 13.595943 -5.207000 13.811711 -0.626030 0.519813 -6.043640 0.381342 14.825400 6.617855 13.929472 3.252835 0.000000 0.000000 0.000000 -3.084034 0.503026 -8.445498 5.058413 -1.735686 22.146212 -3.752407 -9.595951 0.031788 0.000000 0.000000 0.000000 2.406204 -0.595151 8.681745 4.377535 -3.354762 8.462370 -10.364805 2.523517 13.058814 7.363181 -4.420472 -6.889985 0.000000 0.000000 0.000000 -35.505355 -27.288369 11.429689 -28.435649 -12.737823 0.222801 3.332282 -31.330626 -0.029364 0.000000 0.000000 0.000000 27.951861 16.740151 12.749229 43.767922 19.394310 0.577065 -7.875712 27.937748 -0.457256 0.000000 0.000000 0.000000 
